<svg width="24" height="24" viewBox="0 0 24 24" fill="none" xmlns="http://www.w3.org/2000/svg">
<circle cx="11.9928" cy="12.0001" r="11.1959" fill="white"/>
<path fill-rule="evenodd" clip-rule="evenodd" d="M12 0C18.627 0 24 5.37305 24 12C24 18.627 18.627 24 12 24C5.37305 24 0 18.627 0 12C0 5.37305 5.37305 0 12 0ZM7.71094 11.0918C8.60938 11.6094 9.19336 12.0391 9.89062 12.8066C11.6953 9.90039 13.6562 8.29102 16.2031 6.00391L16.4531 5.9082H19.2422C15.5039 10.0605 12.6035 13.4844 10.0078 18.4922C8.65625 15.6035 7.45117 13.6094 4.75781 11.7598L7.71094 11.0918Z" fill="url(#paint0_linear_1807_14185)"/>
<defs>
<linearGradient id="paint0_linear_1807_14185" x1="-2.98023e-08" y1="12" x2="24.0196" y2="12.1904" gradientUnits="userSpaceOnUse">
<stop stop-color="#F00CB1"/>
<stop offset="1" stop-color="#FE6403"/>
</linearGradient>
</defs>
</svg>
